<?xml version="1.0" encoding="UTF-8"?>
<svg width="337px" height="35px" viewBox="0 0 337 35" version="1.1" xmlns="http://www.w3.org/2000/svg" xmlns:xlink="http://www.w3.org/1999/xlink">
    <!-- Generator: Sketch 63.1 (92452) - https://sketch.com -->
    <title>brand/swot-white</title>
    <desc>Created with Sketch.</desc>
    <g id="brand/swot-white" stroke="none" stroke-width="1" fill="none" fill-rule="evenodd">
        <path d="M9.72603213,35 C13.7041516,35 16.8091207,34.1162791 19.0409397,32.3488372 C21.2727587,30.5813953 22.3886682,28.1627907 22.3886682,25.0930233 C22.3886682,22.875969 21.7935164,21.003876 20.603213,19.4767442 C19.4129095,17.9496124 17.2124143,16.4263566 14.0017274,14.9069767 C11.5741349,13.7596899 10.0353544,12.9651163 9.38538608,12.5232558 C8.73541775,12.0813953 8.26164565,11.624031 7.96406979,11.1511628 C7.66649393,10.6782946 7.51770599,10.124031 7.51770599,9.48837209 C7.51770599,8.46511628 7.88576035,7.63565891 8.62186906,7 C9.35797777,6.36434109 10.4151552,6.04651163 11.7934013,6.04651163 C12.952381,6.04651163 14.130938,6.19379845 15.3290724,6.48837209 C16.5272068,6.78294574 18.0424944,7.30232558 19.8749352,8.04651163 L19.8749352,8.04651163 L22.2242183,2.44186047 C20.4544251,1.68217054 18.7590257,1.09302326 17.1380204,0.674418605 C15.517015,0.255813953 13.8137848,0.0465116279 12.0283296,0.0465116279 C8.39477169,0.0465116279 5.54822364,0.906976744 3.48868544,2.62790698 C1.42914723,4.34883721 0.399378131,6.71317829 0.399378131,9.72093023 C0.399378131,11.3178295 0.712615881,12.7131783 1.33909138,13.9069767 C1.96556688,15.1007752 2.80347786,16.1472868 3.85282432,17.0465116 C4.90217078,17.9457364 6.47619048,18.8837209 8.5748834,19.8604651 C10.8145333,20.9147287 12.2984971,21.6821705 13.0267749,22.1627907 C13.7550527,22.6434109 14.3071342,23.1434109 14.6830195,23.6627907 C15.0589048,24.1821705 15.2468475,24.7751938 15.2468475,25.4418605 C15.2468475,26.6356589 14.820061,27.5348837 13.9664882,28.1395349 C13.1129153,28.744186 11.8873726,29.0465116 10.2898601,29.0465116 C8.95859964,29.0465116 7.49029769,28.8372093 5.88495422,28.4186047 C4.27961076,28 2.31795935,27.2790698 0,26.255814 L0,26.255814 L0,32.9534884 C2.81913975,34.3178295 6.06115046,35 9.72603213,35 Z M41.3238901,34.5348837 L45.9519779,16.7209302 C46.1555824,15.9302326 46.4453273,14.6085271 46.8212126,12.755814 C47.1970979,10.9031008 47.4320263,9.55813953 47.5259976,8.72093023 C47.5886451,9.40310078 47.8274889,10.7403101 48.2425289,12.7325581 C48.657569,14.7248062 48.9512293,16.0387597 49.1235101,16.6744186 L49.1235101,16.6744186 L53.7750907,34.5348837 L62.0680601,34.5348837 L70.8073933,0.534883721 L63.6420798,0.534883721 L59.2724132,19.0930233 C58.9904992,20.2093023 58.6772615,21.6705426 58.3326999,23.4767442 C57.9881384,25.2829457 57.7375482,26.7906977 57.5809293,28 C57.4086486,26.744186 57.1580584,25.2403101 56.8291587,23.4883721 C56.5002591,21.7364341 56.2261761,20.4341085 56.0069097,19.5813953 L56.0069097,19.5813953 L51.0029366,0.534883721 L44.1195371,0.534883721 L39.115564,19.5813953 C38.8179881,20.6046512 38.5008349,22.0426357 38.1641043,23.8953488 C37.8273738,25.748062 37.6120228,27.1162791 37.5180515,28 C37.17349,25.4883721 36.6174929,22.5193798 35.8500605,19.0930233 L35.8500605,19.0930233 L31.456901,0.534883721 L24.2915875,0.534883721 L33.0544135,34.5348837 L41.3238901,34.5348837 Z M89.9540508,35 C95.216445,35 99.257212,33.4883721 102.076352,30.4651163 C104.895491,27.4418605 106.305061,23.1162791 106.305061,17.4883721 C106.305061,11.8449612 104.907238,7.51937984 102.111591,4.51162791 C99.315944,1.50387597 95.2790925,0 90.0010364,0 C84.7229804,0 80.670467,1.49224806 77.8434963,4.47674419 C75.0165256,7.46124031 73.6030402,11.7829457 73.6030402,17.4418605 C73.6030402,23.1007752 75.0126101,27.4418605 77.8317499,30.4651163 C80.6508896,33.4883721 84.6916566,35 89.9540508,35 Z M89.9540508,28.9534884 C87.0566016,28.9534884 84.8795992,27.9922481 83.4230437,26.0697674 C81.9664882,24.1472868 81.2382104,21.2868217 81.2382104,17.4883721 C81.2382104,13.6899225 81.9743191,10.8255814 83.4465365,8.89534884 C84.918754,6.96511628 87.1035873,6 90.0010364,6 C95.7802729,6 98.6698912,9.82945736 98.6698912,17.4883721 C98.6698912,25.1317829 95.764611,28.9534884 89.9540508,28.9534884 Z M126.673346,34.5348837 L126.673346,6.53488372 L136,6.53488372 L136,0.534883721 L110.063914,0.534883721 L110.063914,6.53488372 L119.390568,6.53488372 L119.390568,34.5348837 L126.673346,34.5348837 Z" id="SWOT" fill="#FFFFFF" fill-rule="nonzero"></path>
        <path d="M151.74375,15.1875004 C153.24375,15.1875004 154.43125,14.8500004 155.30625,14.1750004 C156.18125,13.5000004 156.61875,12.5593754 156.61875,11.3531254 C156.61875,10.4156254 156.348438,9.65312538 155.807813,9.06562538 C155.267188,8.47812538 154.278125,7.92812538 152.840625,7.41562538 C151.984375,7.10937538 151.348438,6.82968788 150.932813,6.57656288 C150.517188,6.32343788 150.221875,6.04531288 150.046875,5.74218788 C149.871875,5.43906288 149.784375,5.05000038 149.784375,4.57500038 C149.784375,3.93125038 150.021875,3.42812538 150.496875,3.06562538 C150.971875,2.70312538 151.63125,2.52187538 152.475,2.52187538 C153.54375,2.52187538 154.64375,2.75937538 155.775,3.23437538 L155.775,3.23437538 L156.271875,1.84687538 C155.128125,1.34687538 153.875,1.09687538 152.5125,1.09687538 C151.20625,1.09687538 150.15625,1.40937538 149.3625,2.03437538 C148.56875,2.65937538 148.171875,3.50000038 148.171875,4.55625038 C148.171875,5.56250038 148.445313,6.37812538 148.992188,7.00312538 C149.539063,7.62812538 150.45,8.16875038 151.725,8.62500038 C152.6375,8.95000038 153.317188,9.24062538 153.764063,9.49687538 C154.210938,9.75312538 154.529688,10.0328129 154.720313,10.3359379 C154.910938,10.6390629 155.00625,11.0281254 155.00625,11.5031254 C155.00625,12.2218754 154.7375,12.7828129 154.2,13.1859379 C153.6625,13.5890629 152.8625,13.7906254 151.8,13.7906254 C151.15,13.7906254 150.49375,13.7218754 149.83125,13.5843754 C149.16875,13.4468754 148.55625,13.2593754 147.99375,13.0218754 L147.99375,13.0218754 L147.99375,14.5593754 C148.86875,14.9781254 150.11875,15.1875004 151.74375,15.1875004 Z M164.354467,15.1875004 C166.004467,15.1875004 167.301342,14.7406254 168.245092,13.8468754 C169.188842,12.9531254 169.660717,11.7250004 169.660717,10.1625004 L169.660717,10.1625004 L169.660717,1.29375038 L168.066967,1.29375038 L168.066967,10.2187504 C168.066967,11.3687504 167.754467,12.2515629 167.129467,12.8671879 C166.504467,13.4828129 165.613842,13.7906254 164.457592,13.7906254 C163.245092,13.7906254 162.326342,13.4843754 161.701342,12.8718754 C161.076342,12.2593754 160.763842,11.3812504 160.763842,10.2375004 L160.763842,10.2375004 L160.763842,1.29375038 L159.170092,1.29375038 L159.170092,10.1250004 C159.170092,11.7000004 159.621655,12.9375004 160.52478,13.8375004 C161.427905,14.7375004 162.704467,15.1875004 164.354467,15.1875004 Z M174.771434,15.0000004 L174.771434,9.30000038 L177.630809,9.30000038 L180.949559,15.0000004 L182.833934,15.0000004 L179.112059,8.84062538 C180.949559,8.20312538 181.868309,6.97812538 181.868309,5.16562538 C181.868309,3.87187538 181.466747,2.90312538 180.663622,2.25937538 C179.860497,1.61562538 178.618309,1.29375038 176.937059,1.29375038 L176.937059,1.29375038 L173.177684,1.29375038 L173.177684,15.0000004 L174.771434,15.0000004 Z M176.955809,7.93125038 L174.771434,7.93125038 L174.771434,2.69062538 L176.843309,2.69062538 C178.024559,2.69062538 178.882372,2.89062538 179.416747,3.29062538 C179.951122,3.69062538 180.218309,4.34375038 180.218309,5.25000038 C180.218309,6.14375038 179.955809,6.81406288 179.430809,7.26093788 C178.905809,7.70781288 178.080809,7.93125038 176.955809,7.93125038 L176.955809,7.93125038 Z M186.529026,15.0000004 L186.529026,9.14062538 L192.210276,9.14062538 L192.210276,7.72500038 L186.529026,7.72500038 L186.529026,2.70937538 L192.575901,2.70937538 L192.575901,1.29375038 L184.935276,1.29375038 L184.935276,15.0000004 L186.529026,15.0000004 Z M194.077243,15.0000004 L195.764743,10.6406254 L201.258493,10.6406254 L202.964743,15.0000004 L204.614743,15.0000004 L199.224118,1.23750038 L197.883493,1.23750038 L192.464743,15.0000004 L194.077243,15.0000004 Z M200.761618,9.20625038 L196.327243,9.20625038 L197.939743,4.95937538 C198.195993,4.24062538 198.392868,3.58125038 198.530368,2.98125038 C198.749118,3.76250038 198.961618,4.42187538 199.167868,4.95937538 L199.167868,4.95937538 L200.761618,9.20625038 Z M211.609836,15.1875004 C213.003586,15.1875004 214.175461,15.0093754 215.125461,14.6531254 L215.125461,14.6531254 L215.125461,13.2562504 C213.900461,13.6000004 212.809836,13.7718754 211.853586,13.7718754 C210.297336,13.7718754 209.098898,13.2828129 208.258273,12.3046879 C207.417648,11.3265629 206.997336,9.94062538 206.997336,8.14687538 C206.997336,6.40312538 207.433273,5.02968788 208.305148,4.02656288 C209.177023,3.02343788 210.366086,2.52187538 211.872336,2.52187538 C212.909836,2.52187538 213.947336,2.76562538 214.984836,3.25312538 L214.984836,3.25312538 L215.659836,1.88437538 C214.584836,1.35937538 213.328586,1.09687538 211.891086,1.09687538 C210.541086,1.09687538 209.367648,1.38437538 208.370773,1.95937538 C207.373898,2.53437538 206.611398,3.35312538 206.083273,4.41562538 C205.555148,5.47812538 205.291086,6.71562538 205.291086,8.12812538 C205.291086,10.3843754 205.839523,12.1250004 206.936398,13.3500004 C208.033273,14.5750004 209.591086,15.1875004 211.609836,15.1875004 Z M225.645553,15.0000004 L225.645553,13.5750004 L219.598678,13.5750004 L219.598678,8.53125038 L225.279928,8.53125038 L225.279928,7.12500038 L219.598678,7.12500038 L219.598678,2.70937538 L225.645553,2.70937538 L225.645553,1.29375038 L218.004928,1.29375038 L218.004928,15.0000004 L225.645553,15.0000004 Z M237.038862,15.0000004 L239.720112,5.87812538 C240.020112,4.89687538 240.238862,3.99375038 240.376362,3.16875038 C240.382612,3.29375038 240.466987,3.66562538 240.629487,4.28437538 C240.791987,4.90312538 240.938862,5.41562538 241.070112,5.82187538 L241.070112,5.82187538 L243.835737,15.0000004 L245.410737,15.0000004 L249.076362,1.29375038 L247.388862,1.29375038 L245.232612,9.74062538 C244.901362,11.0156254 244.676362,12.0968754 244.557612,12.9843754 C244.351362,11.7656254 244.098237,10.6718754 243.798237,9.70312538 L243.798237,9.70312538 L241.220112,1.29375038 L239.532612,1.29375038 L237.076362,9.62812538 C236.745112,10.7218754 236.495112,11.8406254 236.326362,12.9843754 C236.188862,12.0218754 235.970112,10.9468754 235.670112,9.75937538 L235.670112,9.75937538 L233.504487,1.29375038 L231.816987,1.29375038 L235.463862,15.0000004 L237.038862,15.0000004 Z M250.071454,15.0000004 L251.758954,10.6406254 L257.252704,10.6406254 L258.958954,15.0000004 L260.608954,15.0000004 L255.218329,1.23750038 L253.877704,1.23750038 L248.458954,15.0000004 L250.071454,15.0000004 Z M256.755829,9.20625038 L252.321454,9.20625038 L253.933954,4.95937538 C254.190204,4.24062538 254.387079,3.58125038 254.524579,2.98125038 C254.743329,3.76250038 254.955829,4.42187538 255.162079,4.95937538 L255.162079,4.95937538 L256.755829,9.20625038 Z M265.260296,15.0000004 L265.260296,2.70937538 L269.600921,2.70937538 L269.600921,1.29375038 L259.325921,1.29375038 L259.325921,2.70937538 L263.666546,2.70937538 L263.666546,15.0000004 L265.260296,15.0000004 Z M279.192888,15.0000004 L279.192888,13.5750004 L273.146013,13.5750004 L273.146013,8.53125038 L278.827263,8.53125038 L278.827263,7.12500038 L273.146013,7.12500038 L273.146013,2.70937538 L279.192888,2.70937538 L279.192888,1.29375038 L271.552263,1.29375038 L271.552263,15.0000004 L279.192888,15.0000004 Z M283.71298,15.0000004 L283.71298,9.30000038 L286.572355,9.30000038 L289.891105,15.0000004 L291.77548,15.0000004 L288.053605,8.84062538 C289.891105,8.20312538 290.809855,6.97812538 290.809855,5.16562538 C290.809855,3.87187538 290.408293,2.90312538 289.605168,2.25937538 C288.802043,1.61562538 287.559855,1.29375038 285.878605,1.29375038 L285.878605,1.29375038 L282.11923,1.29375038 L282.11923,15.0000004 L283.71298,15.0000004 Z M285.897355,7.93125038 L283.71298,7.93125038 L283.71298,2.69062538 L285.784855,2.69062538 C286.966105,2.69062538 287.823918,2.89062538 288.358293,3.29062538 C288.892668,3.69062538 289.159855,4.34375038 289.159855,5.25000038 C289.159855,6.14375038 288.897355,6.81406288 288.372355,7.26093788 C287.847355,7.70781288 287.022355,7.93125038 285.897355,7.93125038 L285.897355,7.93125038 Z M298.481289,15.0000004 L300.168789,10.6406254 L305.662539,10.6406254 L307.368789,15.0000004 L309.018789,15.0000004 L303.628164,1.23750038 L302.287539,1.23750038 L296.868789,15.0000004 L298.481289,15.0000004 Z M305.165664,9.20625038 L300.731289,9.20625038 L302.343789,4.95937538 C302.600039,4.24062538 302.796914,3.58125038 302.934414,2.98125038 C303.153164,3.76250038 303.365664,4.42187538 303.571914,4.95937538 L303.571914,4.95937538 L305.165664,9.20625038 Z M312.263882,15.0000004 L312.263882,7.20937538 C312.263882,6.08437538 312.213882,4.84687538 312.113882,3.49687538 L312.113882,3.49687538 L312.188882,3.49687538 L319.679507,15.0000004 L321.498257,15.0000004 L321.498257,1.29375038 L320.007632,1.29375038 L320.007632,9.15937538 C319.995132,9.55312538 320.010757,10.2078129 320.054507,11.1234379 C320.098257,12.0390629 320.126382,12.5812504 320.138882,12.7500004 L320.138882,12.7500004 L320.063882,12.7500004 L312.592007,1.29375038 L310.792007,1.29375038 L310.792007,15.0000004 L312.263882,15.0000004 Z M328.952724,15.0000004 C331.258974,15.0000004 333.026161,14.4015629 334.254286,13.2046879 C335.482411,12.0078129 336.096474,10.2781254 336.096474,8.01562538 C336.096474,5.89687538 335.505849,4.24687538 334.324599,3.06562538 C333.143349,1.88437538 331.487099,1.29375038 329.355849,1.29375038 L329.355849,1.29375038 L325.155849,1.29375038 L325.155849,15.0000004 L328.952724,15.0000004 Z M328.690224,13.6218754 L326.749599,13.6218754 L326.749599,2.67187538 L329.065224,2.67187538 C330.833974,2.67187538 332.166786,3.12500038 333.063661,4.03125038 C333.960536,4.93750038 334.408974,6.28437538 334.408974,8.07187538 C334.408974,9.90312538 333.930849,11.2859379 332.974599,12.2203129 C332.018349,13.1546879 330.590224,13.6218754 328.690224,13.6218754 L328.690224,13.6218754 Z M154.490625,34.0875004 C156.465625,34.0875004 158.007813,33.4593754 159.117188,32.2031254 C160.226563,30.9468754 160.78125,29.2218754 160.78125,27.0281254 C160.78125,24.8281254 160.228125,23.1031254 159.121875,21.8531254 C158.015625,20.6031254 156.478125,19.9781254 154.509375,19.9781254 C152.484375,19.9781254 150.921875,20.5921879 149.821875,21.8203129 C148.721875,23.0484379 148.171875,24.7781254 148.171875,27.0093754 C148.171875,29.2593754 148.720313,31.0015629 149.817188,32.2359379 C150.914063,33.4703129 152.471875,34.0875004 154.490625,34.0875004 Z M154.490625,32.6906254 C152.984375,32.6906254 151.835938,32.2109379 151.045313,31.2515629 C150.254688,30.2921879 149.859375,28.8843754 149.859375,27.0281254 C149.859375,25.1968754 150.254688,23.8015629 151.045313,22.8421879 C151.835938,21.8828129 152.990625,21.4031254 154.509375,21.4031254 C156.021875,21.4031254 157.164063,21.8796879 157.935938,22.8328129 C158.707813,23.7859379 159.09375,25.1843754 159.09375,27.0281254 C159.09375,28.8906254 158.70625,30.3000004 157.93125,31.2562504 C157.15625,32.2125004 156.009375,32.6906254 154.490625,32.6906254 Z M169.332592,34.0875004 C170.726342,34.0875004 171.898217,33.9093754 172.848217,33.5531254 L172.848217,33.5531254 L172.848217,32.1562504 C171.623217,32.5000004 170.532592,32.6718754 169.576342,32.6718754 C168.020092,32.6718754 166.821655,32.1828129 165.98103,31.2046879 C165.140405,30.2265629 164.720092,28.8406254 164.720092,27.0468754 C164.720092,25.3031254 165.15603,23.9296879 166.027905,22.9265629 C166.89978,21.9234379 168.088842,21.4218754 169.595092,21.4218754 C170.632592,21.4218754 171.670092,21.6656254 172.707592,22.1531254 L172.707592,22.1531254 L173.382592,20.7843754 C172.307592,20.2593754 171.051342,19.9968754 169.613842,19.9968754 C168.263842,19.9968754 167.090405,20.2843754 166.09353,20.8593754 C165.096655,21.4343754 164.334155,22.2531254 163.80603,23.3156254 C163.277905,24.3781254 163.013842,25.6156254 163.013842,27.0281254 C163.013842,29.2843754 163.56228,31.0250004 164.659155,32.2500004 C165.75603,33.4750004 167.313842,34.0875004 169.332592,34.0875004 Z M183.368309,33.9000004 L183.368309,32.4750004 L177.321434,32.4750004 L177.321434,27.4312504 L183.002684,27.4312504 L183.002684,26.0250004 L177.321434,26.0250004 L177.321434,21.6093754 L183.368309,21.6093754 L183.368309,20.1937504 L175.727684,20.1937504 L175.727684,33.9000004 L183.368309,33.9000004 Z M186.022776,33.9000004 L187.710276,29.5406254 L193.204026,29.5406254 L194.910276,33.9000004 L196.560276,33.9000004 L191.169651,20.1375004 L189.829026,20.1375004 L184.410276,33.9000004 L186.022776,33.9000004 Z M192.707151,28.1062504 L188.272776,28.1062504 L189.885276,23.8593754 C190.141526,23.1406254 190.338401,22.4812504 190.475901,21.8812504 C190.694651,22.6625004 190.907151,23.3218754 191.113401,23.8593754 L191.113401,23.8593754 L192.707151,28.1062504 Z M199.805368,33.9000004 L199.805368,26.1093754 C199.805368,24.9843754 199.755368,23.7468754 199.655368,22.3968754 L199.655368,22.3968754 L199.730368,22.3968754 L207.220993,33.9000004 L209.039743,33.9000004 L209.039743,20.1937504 L207.549118,20.1937504 L207.549118,28.0593754 C207.536618,28.4531254 207.552243,29.1078129 207.595993,30.0234379 C207.639743,30.9390629 207.667868,31.4812504 207.680368,31.6500004 L207.680368,31.6500004 L207.605368,31.6500004 L200.133493,20.1937504 L198.333493,20.1937504 L198.333493,33.9000004 L199.805368,33.9000004 Z M221.792428,33.9000004 L221.792428,21.6093754 L226.133053,21.6093754 L226.133053,20.1937504 L215.858053,20.1937504 L215.858053,21.6093754 L220.198678,21.6093754 L220.198678,33.9000004 L221.792428,33.9000004 Z M232.952586,34.0875004 C234.927586,34.0875004 236.469773,33.4593754 237.579148,32.2031254 C238.688523,30.9468754 239.243211,29.2218754 239.243211,27.0281254 C239.243211,24.8281254 238.690086,23.1031254 237.583836,21.8531254 C236.477586,20.6031254 234.940086,19.9781254 232.971336,19.9781254 C230.946336,19.9781254 229.383836,20.5921879 228.283836,21.8203129 C227.183836,23.0484379 226.633836,24.7781254 226.633836,27.0093754 C226.633836,29.2593754 227.182273,31.0015629 228.279148,32.2359379 C229.376023,33.4703129 230.933836,34.0875004 232.952586,34.0875004 Z M232.952586,32.6906254 C231.446336,32.6906254 230.297898,32.2109379 229.507273,31.2515629 C228.716648,30.2921879 228.321336,28.8843754 228.321336,27.0281254 C228.321336,25.1968754 228.716648,23.8015629 229.507273,22.8421879 C230.297898,21.8828129 231.452586,21.4031254 232.971336,21.4031254 C234.483836,21.4031254 235.626023,21.8796879 236.397898,22.8328129 C237.169773,23.7859379 237.555711,25.1843754 237.555711,27.0281254 C237.555711,28.8906254 237.168211,30.3000004 236.393211,31.2562504 C235.618211,32.2125004 234.471336,32.6906254 232.952586,32.6906254 Z M243.428368,33.9000004 L243.428368,28.5093754 L245.040868,28.5093754 C246.803368,28.5093754 248.158056,28.1359379 249.104931,27.3890629 C250.051806,26.6421879 250.525243,25.5750004 250.525243,24.1875004 C250.525243,21.5250004 248.812743,20.1937504 245.387743,20.1937504 L245.387743,20.1937504 L241.834618,20.1937504 L241.834618,33.9000004 L243.428368,33.9000004 Z M244.862743,27.1406254 L243.428368,27.1406254 L243.428368,21.5718754 L245.209618,21.5718754 C246.465868,21.5718754 247.390868,21.7937504 247.984618,22.2375004 C248.578368,22.6812504 248.875243,23.3562504 248.875243,24.2625004 C248.875243,25.2687504 248.559618,26.0000004 247.928368,26.4562504 C247.297118,26.9125004 246.275243,27.1406254 244.862743,27.1406254 L244.862743,27.1406254 Z M258.535401,34.0875004 C260.510401,34.0875004 262.052589,33.4593754 263.161964,32.2031254 C264.271339,30.9468754 264.826026,29.2218754 264.826026,27.0281254 C264.826026,24.8281254 264.272901,23.1031254 263.166651,21.8531254 C262.060401,20.6031254 260.522901,19.9781254 258.554151,19.9781254 C256.529151,19.9781254 254.966651,20.5921879 253.866651,21.8203129 C252.766651,23.0484379 252.216651,24.7781254 252.216651,27.0093754 C252.216651,29.2593754 252.765089,31.0015629 253.861964,32.2359379 C254.958839,33.4703129 256.516651,34.0875004 258.535401,34.0875004 Z M258.535401,32.6906254 C257.029151,32.6906254 255.880714,32.2109379 255.090089,31.2515629 C254.299464,30.2921879 253.904151,28.8843754 253.904151,27.0281254 C253.904151,25.1968754 254.299464,23.8015629 255.090089,22.8421879 C255.880714,21.8828129 257.035401,21.4031254 258.554151,21.4031254 C260.066651,21.4031254 261.208839,21.8796879 261.980714,22.8328129 C262.752589,23.7859379 263.138526,25.1843754 263.138526,27.0281254 C263.138526,28.8906254 262.751026,30.3000004 261.976026,31.2562504 C261.201026,32.2125004 260.054151,32.6906254 258.535401,32.6906254 Z M273.286184,34.0875004 C274.273684,34.0875004 275.142434,34.0281254 275.892434,33.9093754 C276.642434,33.7906254 277.379934,33.6156254 278.104934,33.3843754 L278.104934,33.3843754 L278.104934,26.7187504 L273.445559,26.7187504 L273.445559,28.1437504 L276.511184,28.1437504 L276.511184,32.3625004 C275.604934,32.5812504 274.676809,32.6906254 273.726809,32.6906254 C271.976809,32.6906254 270.650247,32.2125004 269.747122,31.2562504 C268.843997,30.3000004 268.392434,28.8968754 268.392434,27.0468754 C268.392434,25.2843754 268.861184,23.9062504 269.798684,22.9125004 C270.736184,21.9187504 272.039309,21.4218754 273.708059,21.4218754 C274.851809,21.4218754 276.042434,21.6843754 277.279934,22.2093754 L277.279934,22.2093754 L277.898684,20.8031254 C276.636184,20.2656254 275.273684,19.9968754 273.811184,19.9968754 C272.367434,19.9968754 271.108059,20.2796879 270.033059,20.8453129 C268.958059,21.4109379 268.134622,22.2296879 267.562747,23.3015629 C266.990872,24.3734379 266.704934,25.6218754 266.704934,27.0468754 C266.704934,29.2718754 267.283059,31.0015629 268.439309,32.2359379 C269.595559,33.4703129 271.211184,34.0875004 273.286184,34.0875004 Z M282.524467,33.9000004 L282.524467,28.2000004 L285.383842,28.2000004 L288.702592,33.9000004 L290.586967,33.9000004 L286.865092,27.7406254 C288.702592,27.1031254 289.621342,25.8781254 289.621342,24.0656254 C289.621342,22.7718754 289.21978,21.8031254 288.416655,21.1593754 C287.61353,20.5156254 286.371342,20.1937504 284.690092,20.1937504 L284.690092,20.1937504 L280.930717,20.1937504 L280.930717,33.9000004 L282.524467,33.9000004 Z M284.708842,26.8312504 L282.524467,26.8312504 L282.524467,21.5906254 L284.596342,21.5906254 C285.777592,21.5906254 286.635405,21.7906254 287.16978,22.1906254 C287.704155,22.5906254 287.971342,23.2437504 287.971342,24.1500004 C287.971342,25.0437504 287.708842,25.7140629 287.183842,26.1609379 C286.658842,26.6078129 285.833842,26.8312504 284.708842,26.8312504 L284.708842,26.8312504 Z M292.06275,33.9000004 L293.75025,29.5406254 L299.244,29.5406254 L300.95025,33.9000004 L302.60025,33.9000004 L297.209625,20.1375004 L295.869,20.1375004 L290.45025,33.9000004 L292.06275,33.9000004 Z M298.747125,28.1062504 L294.31275,28.1062504 L295.92525,23.8593754 C296.1815,23.1406254 296.378375,22.4812504 296.515875,21.8812504 C296.734625,22.6625004 296.947125,23.3218754 297.153375,23.8593754 L297.153375,23.8593754 L298.747125,28.1062504 Z M305.613533,33.9000004 L305.613533,28.5093754 L307.226033,28.5093754 C308.988533,28.5093754 310.34322,28.1359379 311.290095,27.3890629 C312.23697,26.6421879 312.710408,25.5750004 312.710408,24.1875004 C312.710408,21.5250004 310.997908,20.1937504 307.572908,20.1937504 L307.572908,20.1937504 L304.019783,20.1937504 L304.019783,33.9000004 L305.613533,33.9000004 Z M307.047908,27.1406254 L305.613533,27.1406254 L305.613533,21.5718754 L307.394783,21.5718754 C308.651033,21.5718754 309.576033,21.7937504 310.169783,22.2375004 C310.763533,22.6812504 311.060408,23.3562504 311.060408,24.2625004 C311.060408,25.2687504 310.744783,26.0000004 310.113533,26.4562504 C309.482283,26.9125004 308.460408,27.1406254 307.047908,27.1406254 L307.047908,27.1406254 Z M316.708066,33.9000004 L316.708066,27.4500004 L323.926816,27.4500004 L323.926816,33.9000004 L325.520566,33.9000004 L325.520566,20.1937504 L323.926816,20.1937504 L323.926816,26.0250004 L316.708066,26.0250004 L316.708066,20.1937504 L315.114316,20.1937504 L315.114316,33.9000004 L316.708066,33.9000004 Z M333.108849,33.9000004 L333.108849,28.5843754 L337.683849,20.1937504 L335.958849,20.1937504 L332.302599,27.0468754 L328.674474,20.1937504 L326.930724,20.1937504 L331.496349,28.6593754 L331.496349,33.9000004 L333.108849,33.9000004 Z" id="SURFACEWATERANDOCEANTOPOGRAPHY" fill="#FFFFFF" fill-rule="nonzero"></path>
    </g>
</svg>